<svg width="111" height="23" viewBox="0 0 111 23" fill="none" xmlns="http://www.w3.org/2000/svg">
<path d="M9.62994 18.7615C10.0623 18.7615 10.4728 18.7199 10.8591 18.627C11.2507 18.5342 11.5984 18.3883 11.8917 18.1716C12.185 17.9638 12.4276 17.6786 12.6045 17.3152C12.7814 16.9559 12.8661 16.489 12.8661 15.9243C12.8661 14.8186 12.5773 14.0331 12.0036 13.5564C11.4283 13.0863 10.661 12.8524 9.71763 12.8524H4.95223V18.7615H9.62994ZM9.38804 9.6274C10.1644 9.6274 10.8069 9.42859 11.3164 9.02525C11.8206 8.62925 12.0656 7.97333 12.0656 7.07377C12.0656 6.5751 11.9839 6.16199 11.8206 5.84177C11.6521 5.52155 11.4283 5.27058 11.1456 5.0954C10.8651 4.91288 10.5484 4.78658 10.1803 4.71895C9.81968 4.64236 9.44096 4.61303 9.05317 4.61303H4.95223V9.6274H9.38804ZM9.95499 0.957764C10.9067 0.957764 11.7662 1.04658 12.5516 1.22991C13.3325 1.40836 13.9992 1.70658 14.5624 2.11562C15.1173 2.52384 15.5512 3.06732 15.8619 3.75177C16.165 4.42643 16.3177 5.27058 16.3177 6.26955C16.3177 7.34999 16.0901 8.25199 15.6351 8.97311C15.177 9.6934 14.5034 10.2841 13.6039 10.7429C14.8292 11.1226 15.7364 11.7916 16.3381 12.7416C16.9428 13.6982 17.2384 14.8439 17.2384 16.1859C17.2384 17.2744 17.0449 18.2107 16.6594 18.9986C16.2693 19.7963 15.7386 20.4433 15.0848 20.9419C14.4256 21.4455 13.6681 21.8146 12.82 22.055C11.9809 22.2953 11.1101 22.4159 10.2181 22.4159H0.569336V0.957764H9.95499Z" fill="#A7AAB4"/>
<path d="M28.0359 10.5269C27.5649 9.96553 26.7682 9.6616 25.796 9.6616C25.1633 9.6616 24.6395 9.77649 24.2207 10.0103C23.811 10.2409 23.4746 10.5286 23.2183 10.8667C22.9628 11.2106 22.7882 11.5732 22.6869 11.961C22.5856 12.3391 22.5251 12.6821 22.5062 12.9852H28.9483C28.8538 11.8966 28.5083 11.0924 28.0359 10.5269ZM23.4867 18.6898C24.0793 19.3139 24.9365 19.6284 26.047 19.6284C26.8453 19.6284 27.5354 19.4109 28.1145 18.9766C28.6882 18.5439 29.0375 18.0803 29.1728 17.5995H32.6591C32.099 19.4695 31.2486 20.805 30.0882 21.6084C28.9422 22.4159 27.5437 22.8184 25.9147 22.8184C24.7793 22.8184 23.7573 22.6196 22.8403 22.2301C21.9234 21.8349 21.1569 21.2809 20.5121 20.5589C19.8839 19.8338 19.3963 18.9766 19.0486 17.9703C18.7046 16.9689 18.5308 15.8599 18.5308 14.658C18.5308 13.4961 18.7114 12.4108 19.0629 11.4078C19.4228 10.4015 19.9194 9.53286 20.5725 8.80441C21.2279 8.07189 22.0043 7.49419 22.9084 7.07212C23.8132 6.65086 24.8103 6.43982 25.9147 6.43982C27.134 6.43982 28.2022 6.69241 29.1176 7.20819C30.03 7.71582 30.7776 8.40434 31.3657 9.26641C31.9531 10.1277 32.3711 11.112 32.6327 12.2152C32.8912 13.3177 32.9827 14.469 32.9078 15.6749H22.5062C22.5062 16.9029 22.8917 18.0656 23.4867 18.6898Z" fill="#A7AAB4"/>
<path d="M38.5312 0.957764V9.04888H38.6219C39.1246 8.14851 39.7603 7.49421 40.5419 7.08844C41.3221 6.6794 42.0833 6.47732 42.8249 6.47732C43.8824 6.47732 44.7487 6.62725 45.4253 6.93607C46.1026 7.25058 46.6385 7.67592 47.0309 8.22918C47.4156 8.77999 47.6878 9.45222 47.8473 10.2442C48.0038 11.0346 48.0846 11.9064 48.0846 12.8679V22.4159H44.1062V13.6428C44.1062 12.3636 43.921 11.4021 43.5521 10.773C43.1824 10.1432 42.5263 9.82703 41.5798 9.82703C40.5094 9.82703 39.7354 10.1766 39.2561 10.8667C38.7678 11.5569 38.5312 12.6927 38.5312 14.2735V22.4159H34.5542V0.957764H38.5312Z" fill="#A7AAB4"/>
<path d="M58.704 15.1983C58.4576 15.2863 58.1847 15.3604 57.9035 15.4248C57.6132 15.4843 57.31 15.5323 56.9956 15.5747C56.6841 15.6155 56.3636 15.6619 56.0529 15.7222C55.7566 15.7849 55.4603 15.8632 55.1783 15.965C54.8911 16.0661 54.6393 16.2005 54.4322 16.37C54.2175 16.5419 54.0467 16.757 53.9159 17.0153C53.7889 17.2744 53.7209 17.6109 53.7209 18.0086C53.7209 18.3883 53.7889 18.7085 53.9159 18.9717C54.0467 19.2324 54.2175 19.4361 54.442 19.5869C54.6658 19.7376 54.9281 19.8435 55.2199 19.9022C55.5162 19.9658 55.8224 19.9894 56.1361 19.9894C56.9147 19.9894 57.5149 19.8501 57.9428 19.5706C58.3683 19.2895 58.6889 18.9538 58.8892 18.5626C59.0933 18.1715 59.2165 17.7772 59.2566 17.3795C59.3087 16.9795 59.3322 16.6568 59.3322 16.4148V14.8186C59.1606 14.9823 58.9587 15.1086 58.704 15.1983ZM50.9111 9.15234C51.314 8.49152 51.8333 7.95619 52.4653 7.55612C53.0972 7.15197 53.8033 6.8676 54.597 6.6973C55.3877 6.52212 56.1784 6.43982 56.9812 6.43982C57.7031 6.43982 58.4334 6.4936 59.1855 6.60441C59.9256 6.71441 60.6021 6.93034 61.216 7.25219C61.829 7.57567 62.3287 8.01812 62.7157 8.59582C63.108 9.15886 63.3069 9.92153 63.3069 10.8667V18.9643C63.3069 19.6683 63.3462 20.3373 63.4157 20.9778C63.4943 21.6239 63.6977 22.1087 63.8897 22.4265L59.8454 22.4159C59.7268 22.2301 59.6285 21.9392 59.5824 21.6858C59.5355 21.4381 59.503 21.1831 59.4849 20.9215C58.8552 21.6239 58.1166 22.1177 57.2564 22.3996C56.4029 22.6775 55.5329 22.8184 54.6393 22.8184C53.9545 22.8184 53.3165 22.7247 52.7193 22.5438C52.1312 22.3629 51.6088 22.0826 51.1636 21.7038C50.716 21.3175 50.3721 20.8384 50.1211 20.2583C49.8717 19.6749 49.7432 18.9806 49.7432 18.1789C49.7432 17.294 49.8906 16.5655 50.1816 15.9952C50.4651 15.4248 50.8332 14.966 51.2936 14.6263C51.7464 14.284 52.2665 14.0266 52.8553 13.8587C53.4389 13.6892 54.0316 13.5491 54.6189 13.4505C55.2154 13.3519 55.7959 13.272 56.3757 13.2101C56.957 13.149 57.4605 13.0618 57.9103 12.9396C58.354 12.8206 58.7093 12.6398 58.9701 12.4108C59.2263 12.181 59.3496 11.8469 59.3322 11.402C59.3322 10.9425 59.2566 10.5758 59.1197 10.302C58.9822 10.0323 58.7962 9.82456 58.5687 9.67301C58.3351 9.52145 58.072 9.42204 57.7689 9.36908C57.4605 9.32101 57.1339 9.29412 56.7854 9.29412C56.0106 9.29412 55.3975 9.4799 54.9629 9.83679C54.5161 10.2043 54.2591 10.8089 54.1797 11.653H50.2081C50.2655 10.6451 50.4953 9.81316 50.9111 9.15234Z" fill="#A7AAB4"/>
<path d="M69.2448 6.88307V9.04885H69.3332C69.8344 8.14848 70.4807 7.49418 71.2835 7.08841C72.0795 6.67937 72.9043 6.47729 73.7403 6.47729C74.8024 6.47729 75.674 6.62722 76.3475 6.93604C77.0332 7.25055 77.5661 7.67589 77.9524 8.22915C78.3485 8.77996 78.6206 9.45219 78.7794 10.2442C78.9396 11.0346 79.019 11.9064 79.019 12.8679V22.4159H75.039V13.6428C75.039 12.3635 74.8523 11.402 74.4811 10.773C74.1047 10.1431 73.4553 9.739 72.5021 9.739C71.4249 9.739 70.6402 10.1766 70.158 10.8667C69.6726 11.5569 69.4323 12.6927 69.4323 14.2735V22.4159H65.4954V6.88307H69.2448Z" fill="#A7AAB4"/>
<path d="M87.8287 9.6616C87.1922 9.6616 86.6669 9.81316 86.2443 10.1277C85.8126 10.4414 85.4604 10.839 85.1913 11.332C84.9214 11.8217 84.7347 12.3635 84.619 12.9567C84.5109 13.5491 84.4505 14.1358 84.4505 14.7192C84.4505 15.283 84.5109 15.8542 84.619 16.4376C84.7347 17.0178 84.9123 17.5417 85.1633 18.0192C85.418 18.4869 85.7567 18.8715 86.1846 19.1754C86.6102 19.4777 87.128 19.6284 87.7425 19.6284C88.6958 19.6284 89.426 19.3416 89.9378 18.7737C90.4473 18.2025 90.7625 17.4349 90.8955 16.4735H94.719C94.4567 18.5341 93.7129 20.1084 92.489 21.1937C91.2606 22.2717 89.6876 22.8184 87.772 22.8184C86.6895 22.8184 85.7061 22.6196 84.7989 22.2301C83.8933 21.8349 83.1246 21.2906 82.4911 20.5883C81.8576 19.8843 81.3662 19.0475 81.0064 18.0746C80.6549 17.1001 80.478 16.0302 80.478 14.8691C80.478 13.6664 80.6421 12.546 80.9679 11.5104C81.2922 10.4789 81.7714 9.58501 82.4102 8.83538C83.0429 8.08086 83.817 7.49419 84.7324 7.07212C85.6441 6.65086 86.6857 6.43982 87.8552 6.43982C88.7109 6.43982 89.5326 6.56449 90.3263 6.79752C91.114 7.03545 91.8223 7.40293 92.4437 7.89589C93.0666 8.3856 93.5768 8.9959 93.9676 9.72353C94.3539 10.4512 94.5747 11.323 94.6359 12.3195H90.7534C90.4964 10.5465 89.5212 9.6616 87.8287 9.6616Z" fill="#A7AAB4"/>
<path d="M21.6965 2.39758H29.7661V4.51529H21.6965V2.39758Z" fill="#A7AAB4"/>
<path d="M105.27 10.5269C104.793 9.96553 103.99 9.6616 103.03 9.6616C102.398 9.6616 101.873 9.77649 101.447 10.0103C101.036 10.2409 100.661 10.5286 100.41 10.8667C100.158 11.2106 99.9772 11.5732 99.8721 11.961C99.7784 12.3391 99.7126 12.6821 99.6952 12.9852H106.186C106.08 11.8966 105.743 11.0924 105.27 10.5269ZM100.672 18.6898C101.267 19.3139 102.165 19.6284 103.284 19.6284C104.08 19.6284 104.769 19.4109 105.344 18.9766C105.92 18.5439 106.276 18.0803 106.403 17.5995H109.89C109.333 19.4695 108.477 20.805 107.324 21.6084C106.174 22.4159 104.781 22.8184 103.146 22.8184C102.008 22.8184 100.982 22.6196 100.072 22.2301C99.1563 21.8349 98.389 21.2809 97.7472 20.5589C97.1122 19.8338 96.6254 18.9766 96.2792 17.9703C95.9352 16.9689 95.7644 15.8599 95.7644 14.658C95.7644 13.4961 95.9413 12.4108 96.2936 11.4078C96.6504 10.4015 97.1576 9.53286 97.8069 8.80441C98.4653 8.07189 99.2349 7.49419 100.137 7.07212C101.042 6.65086 102.048 6.43982 103.146 6.43982C104.364 6.43982 105.437 6.69241 106.343 7.20819C107.258 7.71582 108.009 8.40434 108.593 9.26641C109.18 10.1277 109.603 11.112 109.862 12.2152C110.117 13.3177 110.216 14.469 110.142 15.6749H99.6952C99.6952 16.9029 100.075 18.0656 100.672 18.6898Z" fill="#A7AAB4"/>
</svg>
