<svg width="67" height="22" viewBox="0 0 67 22" fill="none" xmlns="http://www.w3.org/2000/svg">
<g clip-path="url(#clip0_1107_453)">
<path d="M66.323 10.7719C65.9777 10.5427 65.5309 10.626 65.2871 10.9804C65.2465 11.0429 64.3528 12.3768 62.7889 12.3768C62.1796 12.3768 61.7124 12.1892 61.4078 11.7932C61.3874 11.7724 61.3671 11.7307 61.3468 11.7098C61.3468 11.7098 61.3671 11.7098 61.3671 11.689C65.0637 9.5214 65.0231 7.66644 64.8606 6.97865C64.6372 6.14496 63.9263 5.60306 63.0123 5.60306C60.9 5.60306 59.4985 8.02076 59.4985 10.2717C59.4985 10.5635 59.5188 10.8345 59.5595 11.1054C58.808 11.6681 57.6502 12.3768 56.6347 12.3768C56.0457 12.3768 55.5988 12.1892 55.3145 11.8349C55.2129 11.7098 55.1317 11.5639 55.0708 11.418C57.894 10.5843 58.9704 8.72939 58.7673 7.24959C58.6455 6.29085 57.9346 5.60306 57.0612 5.60306C55.0911 5.60306 53.6693 7.72897 53.4459 9.81319C53.06 9.7715 52.735 9.66729 52.4303 9.45887C52.471 9.12539 52.5116 8.79192 52.5116 8.47929C52.5116 7.79149 52.3897 7.20791 52.146 6.74938C51.821 6.14496 51.2726 5.81148 50.643 5.81148C50.2977 5.81148 49.993 5.99906 49.8102 6.33254C49.4446 7.02033 49.6884 8.35423 50.3586 9.41718C50.4805 9.62561 50.6227 9.81319 50.7852 10.0008C50.4196 11.2096 49.6478 12.3559 48.6728 12.3559C48.226 12.3559 47.901 12.21 47.6167 11.9183C47.2308 11.4806 46.9667 10.7094 46.8855 9.72982C49.6478 6.18664 51.0086 2.70599 50.2368 1.05946C49.9727 0.496715 49.4853 0.184082 48.8963 0.184082C46.987 0.184082 45.8496 2.72683 45.4028 7.95823C45.3825 8.27086 45.3622 8.66687 45.3622 9.08371C44.3466 10.501 42.6608 12.3559 41.1578 12.3559C40.7313 12.3559 40.4063 12.21 40.2032 11.8974C40.1829 11.8766 40.1626 11.8349 40.1423 11.814C40.1626 11.814 40.1829 11.7932 40.2032 11.7724C43.9201 9.31297 43.8592 7.45802 43.6764 6.79107C43.4733 6.06159 42.8233 5.58222 41.9906 5.58222C39.8376 5.58222 38.3752 8.12497 38.3752 10.501C38.3752 10.7094 38.3955 10.9178 38.4158 11.1262C37.7253 11.6265 37.1769 12.085 36.6285 12.5227C36.7097 11.8766 36.8316 11.0429 36.9738 9.81319C37.0144 9.56308 37.0347 9.35466 37.055 9.25045C37.1769 8.35423 35.7348 8.16665 35.5723 9.16708C35.4098 10.2092 34.9833 12.3559 33.785 12.3559C33.0741 12.3559 32.6882 11.5431 32.7694 10.3551C32.871 8.47929 33.8662 6.9578 35.0849 6.9578C35.5114 6.9578 35.7145 7.41633 35.7145 7.41633C36.1004 8.12497 37.2987 7.52054 37.0347 6.77022C36.9128 6.43675 36.5269 5.58222 35.1255 5.58222C32.282 5.58222 31.3883 8.54181 31.2664 10.501C31.2461 10.8136 31.2461 11.1262 31.2867 11.4389C30.8805 11.9391 30.4134 12.3559 29.9462 12.3559C29.4994 12.3559 29.215 11.8349 29.3775 10.6469C29.54 9.50055 29.6619 8.56265 29.7228 8.02076C30.0681 5.54053 27.0417 5.60306 27.0417 5.60306C27.0417 5.60306 27.0011 4.1441 25.8434 4.1441C25.2544 4.1441 24.706 4.62347 24.706 5.51969C24.706 6.35338 25.3763 6.77022 25.3763 6.77022C25.2341 8.06244 24.6451 12.3559 23.3249 12.3559C22.7358 12.3559 22.6952 11.7098 22.7562 11.2513C22.8374 10.626 22.939 9.54224 22.9796 9.27129C23.1014 8.37507 21.6594 8.18749 21.4969 9.18792C21.3344 10.23 20.9079 12.3768 19.7095 12.3768C18.9986 12.3768 18.6127 11.4597 18.6737 10.3342C18.7752 8.4376 19.7705 6.97865 20.9891 6.97865C21.4156 6.97865 21.6187 7.43717 21.6187 7.43717C21.9437 8.14581 23.1827 7.6456 22.939 6.79107C22.8374 6.41591 22.4312 5.60306 21.0297 5.60306C18.1862 5.60306 17.2925 8.56265 17.1707 10.5218C17.1504 10.8345 17.1504 11.1262 17.1707 11.3972C16.7644 11.9599 16.277 12.3768 15.8098 12.3768C15.3833 12.3768 15.0583 12.1475 15.1396 11.1679C15.1802 10.7094 15.688 7.56223 15.6677 6.99949C15.6067 6.04075 15.1802 5.6239 14.1443 5.6239C13.0476 5.6239 12.2351 6.20748 11.8898 6.5618C11.8898 6.5618 12.3976 2.60178 12.4992 1.83062C12.6007 1.03861 11.0977 1.01777 11.0165 1.83062C10.9758 2.18494 10.5696 5.31127 10.204 8.22918C9.35097 10.1467 7.66517 13.0646 5.16693 13.0646C0.434498 13.0646 2.60776 2.47673 7.05584 2.47673C8.0917 2.47673 7.62455 4.18579 6.93398 5.20706C6.44652 5.95738 7.68548 6.79107 8.37605 5.60306C10.2853 2.28915 8.68071 1.05946 7.1574 1.05946C0.576674 1.05946 -1.86063 14.5235 4.98413 14.5235C7.23864 14.5235 8.76196 13.2313 9.73688 11.814C9.63533 12.606 9.57439 13.1479 9.55408 13.2522C9.43222 14.0858 10.9555 14.0233 11.0368 13.3147C11.0977 12.877 11.3211 11.022 11.5039 9.58392C11.6055 8.77108 12.5804 7.27044 13.6772 7.27044C13.9412 7.27044 14.1037 7.54139 14.0834 7.77065C14.0428 8.0416 13.5756 11.5639 13.5959 12.085C13.6772 13.5648 14.713 13.8983 15.688 13.8983C16.4598 13.8983 17.0894 13.5231 17.5972 12.9395C17.9425 13.5231 18.4706 13.8983 19.2017 13.8983C20.8469 13.8983 21.4156 12.6894 21.4156 12.6894C21.4156 12.6894 21.6187 13.8983 23.0405 13.8983C25.9247 13.8983 26.5949 8.75023 26.7371 7.02033C26.8996 7.02033 27.9151 7.08286 28.0979 7.66644C28.2604 8.22918 27.7526 10.0216 27.712 11.8766C27.6917 12.8562 28.037 13.8983 29.54 13.8983C30.454 13.8983 31.1852 13.4606 31.6929 12.9812C32.0382 13.5439 32.5663 13.8983 33.2772 13.8983C34.0896 13.8983 34.638 13.6273 34.9833 13.3564C34.963 13.5231 34.9427 13.669 34.9224 13.8357V13.8566C34.9224 13.8357 31.1242 16.6494 31.1242 19.2964C31.1242 20.3385 31.5914 21.0055 32.7897 21.0055C35.1661 21.0055 35.9176 17.7332 36.2629 15.0446C36.2832 14.9195 36.3035 14.7945 36.3035 14.6903C36.6691 14.3985 37.0144 14.1275 37.3597 13.8566C37.8471 13.4606 38.3346 13.0854 38.883 12.6686C38.9033 12.7103 38.9439 12.7519 38.9642 12.7936C39.472 13.5023 40.2235 13.8774 41.1375 13.8774C42.8639 13.8774 44.4685 12.5227 45.6059 11.1888C45.7887 11.8349 46.0527 12.4601 46.4996 12.9604C47.048 13.5648 47.7995 13.8983 48.6525 13.8983C50.2977 13.8983 51.4351 12.5435 52.0444 10.9804C52.4913 11.1888 52.9991 11.3138 53.5271 11.3555C53.649 11.8974 53.8521 12.3976 54.1771 12.7936C54.5833 13.2938 55.3348 13.8983 56.655 13.8983C57.9752 13.8983 59.2751 13.1688 60.1485 12.5644C60.1891 12.6269 60.2297 12.6894 60.2703 12.7519C60.6766 13.273 61.4687 13.8983 62.8092 13.8983C65.1856 13.8983 66.5058 11.8974 66.5667 11.814C66.7495 11.4806 66.648 11.0012 66.323 10.7719ZM32.9725 19.5257C32.7491 19.5257 32.5866 19.3798 32.5866 19.088C32.5866 17.7541 34.5974 15.9408 34.6177 15.9408C34.374 17.7332 33.6631 19.5257 32.9725 19.5257ZM41.9499 7.02033C42.1327 7.02033 42.1734 7.16623 42.214 7.24959C42.2952 7.54139 42.0109 8.64602 39.8376 10.1883C39.9595 8.72939 40.8328 7.02033 41.9499 7.02033ZM48.8556 1.74725C49.4853 1.74725 48.9775 3.95652 46.9667 7.04117C47.4339 2.93526 48.0838 1.74725 48.8556 1.74725ZM56.8987 7.02033C57.2237 7.02033 57.244 7.35381 57.2643 7.47886C57.3456 8.10413 56.7769 9.22961 54.9083 9.87571C55.1114 8.52097 55.9848 7.02033 56.8987 7.02033ZM62.992 7.02033C63.2154 7.02033 63.3373 7.18707 63.3982 7.39549C63.5201 7.83318 62.9514 8.93781 60.9609 10.1883C61.0015 8.72939 61.8546 7.02033 62.992 7.02033Z" fill="#A7AAB4"/>
</g>
<defs>
<clipPath id="clip0_1107_453">
<rect width="65.7661" height="20.8259" fill="white" transform="translate(0.890869 0.184082)"/>
</clipPath>
</defs>
</svg>
