<svg width="90" height="23" viewBox="0 0 90 23" fill="none" xmlns="http://www.w3.org/2000/svg">
<path d="M27.5939 9.51864C28.61 9.51864 29.4337 8.6919 29.4337 7.67212C29.4337 6.65233 28.61 5.8256 27.5939 5.8256C26.5777 5.8256 25.754 6.65233 25.754 7.67212C25.754 8.6919 26.5777 9.51864 27.5939 9.51864ZM88.3141 15.8275C88.0342 15.63 87.8181 15.5974 87.6389 15.9809C84.5487 22.6959 79.3413 19.3451 79.8587 19.64C81.0137 19.1097 84.0515 16.6652 83.5924 13.29C83.3135 11.2272 81.549 10.3122 79.676 10.6399C76.4067 11.2117 75.2038 14.7498 75.8162 17.8823C75.9234 18.4202 76.1148 18.864 76.306 19.2985C72.6115 22.3129 71.1443 16.5999 70.9778 15.9173C70.9712 15.8808 73.8305 13.4895 74.6258 7.7913C75.4593 1.81928 73.5605 0.732002 71.6187 0.76589C68.0258 0.828717 67.055 8.36064 68.3593 14.6379C68.2502 14.6665 67.7416 14.949 66.9247 14.9806C66.3368 13.1249 63.8252 11.4981 63.1677 12.1249C61.5224 13.6932 63.5667 16.7588 65.005 16.9993C64.141 22.3391 58.7372 21.0165 59.7432 14.3267C61.5029 11.0481 62.8412 6.17285 62.6023 3.22973C62.5178 2.18767 61.75 0.791592 60.0133 0.860606C56.6734 0.993302 56.3103 8.52732 56.7019 13.8745C56.6824 13.7428 56.4966 14.5242 55.128 14.9128C54.8041 13.1096 51.9106 11.2999 51.2294 12.17C49.9545 13.7985 52.1641 16.7021 53.2108 16.9047C52.3468 22.2444 46.9431 20.9218 47.949 14.2319C49.7087 10.9534 51.047 6.07814 50.8081 3.13501C50.7236 2.09295 49.9558 0.696877 48.219 0.76589C44.8792 0.898682 44.5161 8.4326 44.9077 13.7798C44.888 13.6461 44.6978 14.4531 43.2733 14.8354C43.2256 12.4961 40.3215 11.4236 39.6239 12.17C38.3807 13.5003 39.9086 16.2302 41.3223 16.9047C40.4582 22.2444 35.0545 20.9218 36.0605 14.2319C37.8201 10.9534 39.1585 6.07814 38.9196 3.13501C38.835 2.09295 38.0673 0.696877 36.3305 0.76589C32.9906 0.898682 32.7219 8.81137 33.1136 14.1585C32.0135 18.8876 28.3243 24.7933 28.8035 12.9629C28.8508 12.1331 28.9025 11.8178 28.4902 11.5072C28.1811 11.2656 27.4785 11.3817 27.0945 11.3914C26.6276 11.4102 26.5105 11.6843 26.4074 12.0985C26.167 13.1682 26.1239 14.2051 26.0896 15.6199C26.067 16.2818 26.0141 16.5906 25.7602 17.493C25.5063 18.3954 24.0591 20.0445 23.2665 19.7689C22.1672 19.3894 22.5276 16.2756 22.7337 14.1361C22.9055 12.4452 22.3559 11.6861 20.9473 11.4099C20.1228 11.2374 19.6217 11.264 18.7631 10.9924C17.9511 10.7356 17.7673 9.19432 16.0356 9.70797C15.088 9.98907 15.697 12.003 15.4694 13.4957C14.3501 20.8379 12.021 21.0396 10.9405 17.4728C15.8068 5.51499 12.3482 0.80073 10.324 0.80073C8.21527 0.80073 5.80487 2.25792 6.82554 11.5821C6.32925 11.4368 6.17669 11.3586 5.63343 11.3586C2.5608 11.3586 0.467285 13.8508 0.467285 16.9251C0.467285 19.9994 2.5608 22.4916 5.63343 22.4916C7.44735 22.4916 8.72067 21.664 9.68527 20.3836C10.3145 21.2878 11.0808 22.5056 12.4821 22.4508C16.6589 22.2876 17.8738 13.6912 18.017 13.2117C18.4636 13.2807 18.8861 13.4114 19.2983 13.4804C19.9854 13.584 20.0352 13.8568 20.0197 14.5502C19.8378 20.3966 20.913 22.4437 23.3521 22.4437C24.711 22.4437 25.9224 21.1042 26.7568 20.1462C27.3801 21.4368 28.3731 22.4043 29.7054 22.4437C32.9338 22.5242 34.1697 17.3616 34.0571 18.041C33.9687 18.5741 35.1044 22.4146 38.4279 22.4286C42.5448 22.4458 43.31 17.9035 43.4014 17.1426C43.4128 16.9912 43.4177 17.0071 43.4014 17.1426C43.4003 17.1567 43.3992 17.1717 43.3981 17.1888C44.7051 16.9449 45.3795 16.2418 45.3795 16.2418C45.3795 16.2418 46.4289 22.4992 50.3165 22.4286C54.3531 22.3552 55.1144 18.2493 55.2145 17.4486C55.2276 17.2586 55.2354 17.2808 55.2145 17.4486C55.2139 17.4565 55.2134 17.4634 55.2129 17.4721C56.7654 16.9053 57.1737 16.3365 57.1737 16.3365C57.1737 16.3365 58.0079 22.4695 62.1106 22.5232C65.7668 22.5711 67.1217 18.8147 67.1297 17.2424C67.7464 17.2489 68.887 16.8754 68.8602 16.854C68.8602 16.854 70.1995 22.2162 73.9393 22.4916C75.6953 22.6209 77.0125 21.5004 77.7633 20.9891C79.528 22.423 85.4039 24.2543 89.114 17.943C89.6376 17.0372 88.5117 15.9672 88.3141 15.8275ZM5.48514 20.4096C3.69247 20.4096 2.54297 18.7465 2.54297 16.9533C2.54297 15.1601 3.59807 13.497 5.39074 13.497C6.19756 13.497 6.64613 13.5861 7.27449 14.1344C7.38853 14.5847 7.7113 15.6238 7.8685 16.0957C8.07894 16.727 8.32931 17.2645 8.58187 17.8494C8.22106 19.3497 7.03872 20.4096 5.48514 20.4096ZM9.85358 14.1871C9.7791 14.0679 9.79457 14.1411 9.71117 14.0285C9.38262 13.1317 8.74933 11.1298 8.67599 8.85582C8.59307 6.28375 9.02038 3.26885 10.28 3.26885C11.1335 3.26885 12.0406 9.37909 9.85358 14.1871ZM35.095 11.5072C34.8927 9.98079 34.8821 3.17623 36.5103 3.36357C37.4091 3.72891 35.9403 10.1499 35.095 11.5072ZM46.9835 11.5072C46.7812 9.98079 46.7707 3.17623 48.3988 3.36357C49.2977 3.72891 47.8288 10.1499 46.9835 11.5072ZM58.7777 11.6019C58.5753 10.0755 58.5649 3.27095 60.193 3.45828C61.0919 3.82363 59.623 10.2447 58.7777 11.6019ZM71.7985 2.96529C73.2871 2.8105 73.2256 9.33254 70.2378 13.4499C69.8526 11.9618 69.2618 3.47637 71.7985 2.96529ZM78.0551 16.9993C77.577 14.5762 78.8123 12.9847 80.0858 12.8103C80.5309 12.7389 81.176 13.0282 81.3046 13.5691C81.5162 14.5885 81.274 16.1005 78.4236 18.0191C78.4279 18.0355 78.1616 17.5389 78.0551 16.9993Z" fill="#A7AAB4"/>
</svg>
