<svg width="76" height="22" viewBox="0 0 76 22" fill="none" xmlns="http://www.w3.org/2000/svg">
<path d="M14.7637 9.07068H8.40287C8.23879 9.07068 8.10561 9.20593 8.10561 9.37235V12.5267C8.10561 12.6931 8.23879 12.8285 8.40287 12.8285H10.8842V16.7476C10.8842 16.7476 10.3271 16.9402 8.78667 16.9402C6.96935 16.9402 4.43061 16.2667 4.43061 10.6045C4.43061 4.94096 7.07416 4.19582 9.556 4.19582C11.7043 4.19582 12.6298 4.5795 13.2187 4.76431C13.4037 4.82186 13.5749 4.63498 13.5749 4.46839L14.2845 1.42066C14.2845 1.34281 14.2585 1.24896 14.1709 1.18518C13.9318 1.0122 12.4727 0.184082 8.78667 0.184082C4.54031 0.184082 0.18457 2.01649 0.18457 10.8252C0.18457 19.6343 5.17157 20.947 9.37395 20.947C12.8535 20.947 14.9643 19.4388 14.9643 19.4388C15.0513 19.39 15.0608 19.2668 15.0608 19.2102V9.37235C15.0608 9.20593 14.9277 9.07068 14.7637 9.07068ZM47.5272 1.28669C47.5272 1.11883 47.396 0.983424 47.232 0.983424H43.6504C43.4868 0.983424 43.3538 1.11883 43.3538 1.28669C43.3538 1.28749 43.3547 8.30699 43.3547 8.30699H37.7721V1.28669C37.7721 1.11883 37.6403 0.983424 37.4766 0.983424H33.8952C33.7322 0.983424 33.5993 1.11883 33.5993 1.28669V20.2955C33.5993 20.4632 33.7322 20.5997 33.8952 20.5997H37.4766C37.6403 20.5997 37.7721 20.4632 37.7721 20.2955V12.1648H43.3547C43.3547 12.1648 43.345 20.2949 43.345 20.2955C43.345 20.4632 43.4778 20.5997 43.6416 20.5997H47.2316C47.3957 20.5997 47.5268 20.4632 47.5272 20.2955V1.28669ZM21.5106 3.82812C21.5106 2.52008 20.4766 1.46303 19.201 1.46303C17.9267 1.46303 16.892 2.52008 16.892 3.82812C16.892 5.13472 17.9267 6.19465 19.201 6.19465C20.4766 6.19465 21.5106 5.13472 21.5106 3.82812ZM21.2264 16.2956V7.52108C21.2264 7.3545 21.0939 7.21829 20.9301 7.21829H17.3599C17.1962 7.21829 17.0496 7.38967 17.0496 7.55625V20.1275C17.0496 20.497 17.2765 20.6068 17.5703 20.6068H20.787C21.1399 20.6068 21.2264 20.4311 21.2264 20.1216V16.2956ZM61.2156 7.21829H57.6615C57.4985 7.21829 57.3658 7.3545 57.3658 7.5222V16.8428C57.3658 16.8428 56.4629 17.5128 55.1814 17.5128C53.8999 17.5128 53.5598 16.9231 53.5598 15.6504V7.5222C53.5598 7.3545 53.4274 7.21829 53.2643 7.21829H49.6572C49.4944 7.21829 49.361 7.3545 49.361 7.5222V16.2659C49.361 20.0461 51.4383 20.971 54.2959 20.971C56.6401 20.971 58.5302 19.6573 58.5302 19.6573C58.5302 19.6573 58.6202 20.3496 58.6609 20.4317C58.7017 20.5136 58.8078 20.5962 58.9224 20.5962L61.2171 20.586C61.38 20.586 61.5133 20.4495 61.5133 20.2826L61.5122 7.5222C61.5122 7.3545 61.3793 7.21829 61.2156 7.21829ZM69.4042 17.52C68.1715 17.482 67.3354 16.9146 67.3354 16.9146V10.8949C67.3354 10.8949 68.1603 10.3821 69.1724 10.2903C70.4522 10.1741 71.6854 10.5663 71.6854 13.6629C71.6854 16.9284 71.1289 17.5728 69.4042 17.52ZM70.8061 6.80998C68.7875 6.80998 67.4145 7.72347 67.4145 7.72347V1.28669C67.4145 1.11883 67.2822 0.983424 67.1189 0.983424H63.5273C63.364 0.983424 63.2313 1.11883 63.2313 1.28669V20.2955C63.2313 20.4632 63.364 20.5997 63.5278 20.5997H66.0197C66.1319 20.5997 66.2169 20.5411 66.2796 20.4383C66.3416 20.3361 66.4309 19.5619 66.4309 19.5619C66.4309 19.5619 67.8996 20.9735 70.6798 20.9735C73.9438 20.9735 75.8156 19.2943 75.8156 13.4349C75.8156 7.57559 72.8261 6.80998 70.8061 6.80998ZM31.5344 7.18567H28.8478C28.8478 7.18567 28.8437 3.58656 28.8437 3.58576C28.8437 3.44955 28.7745 3.38145 28.6193 3.38145H24.9582C24.8158 3.38145 24.7394 3.44492 24.7394 3.58368V7.30382C24.7394 7.30382 22.9047 7.75305 22.7807 7.78934C22.6571 7.82563 22.5662 7.94121 22.5662 8.07902V10.4168C22.5662 10.585 22.6986 10.7205 22.8623 10.7205H24.7394V16.3444C24.7394 20.5216 27.6282 20.932 29.5776 20.932C30.4683 20.932 31.5338 20.6418 31.7097 20.5759C31.8161 20.5363 31.8779 20.4245 31.8779 20.3033L31.8809 17.7317C31.8809 17.564 31.7412 17.4283 31.5839 17.4283C31.4274 17.4283 31.0269 17.4929 30.6146 17.4929C29.295 17.4929 28.8478 16.8705 28.8478 16.0649C28.8478 15.26 28.8477 10.7205 28.8477 10.7205H31.5344C31.6982 10.7205 31.8307 10.585 31.8307 10.4168V7.48863C31.8307 7.32092 31.6982 7.18567 31.5344 7.18567Z" fill="#A7AAB4"/>
</svg>
