<svg width="90" height="26" viewBox="0 0 90 26" fill="none" xmlns="http://www.w3.org/2000/svg">
<g clip-path="url(#clip0_1107_460)">
<path d="M5.15852 0.472336C3.34709 1.22797 1.3557 3.36001 0.726758 6.03809C-0.0697682 9.43041 3.24489 10.8651 3.51676 10.3953C3.83674 9.84264 2.92283 9.65574 2.73468 7.89557C2.49157 5.62215 3.55296 3.08188 4.88889 1.96728C5.13707 1.7602 5.1253 2.04842 5.1253 2.58154C5.1253 3.5349 5.07242 12.0932 5.07242 13.8793C5.07242 16.2962 4.97217 17.0594 4.79206 17.8135C4.60973 18.5778 4.31641 19.0941 4.53852 19.293C4.78685 19.5156 5.84705 18.9863 6.46079 18.1333C7.19669 17.1104 7.45425 15.8819 7.50058 14.5477C7.55644 12.9395 7.55406 10.3875 7.55644 8.93185C7.55853 7.59682 7.57894 3.68754 7.53291 1.33744C7.52159 0.761 5.91617 0.15623 5.15852 0.472336Z" fill="#A7AAB4"/>
<path d="M69.4825 11.783C69.4241 13.0395 69.1448 14.0216 68.7982 14.7143C68.1271 16.0554 66.7345 16.4718 66.1433 14.544C65.821 13.4932 65.806 11.7381 66.0376 10.2716C66.2735 8.77773 66.9319 7.64948 68.0222 7.75124C69.0976 7.85181 69.6009 9.23164 69.4825 11.783ZM51.3529 19.5784C51.3383 21.6661 51.0084 23.4966 50.3008 24.0283C49.2972 24.7821 47.9483 24.2167 48.2276 22.6932C48.4747 21.3451 49.6435 19.9684 51.3558 18.2863C51.3558 18.2863 51.3593 18.6699 51.3529 19.5784ZM51.0788 11.7707C51.0175 12.9151 50.7195 14.0648 50.3945 14.7143C49.7235 16.0554 48.3209 16.4746 47.7396 14.544C47.3422 13.2249 47.4373 11.5177 47.634 10.4419C47.8892 9.04622 48.5077 7.75139 49.6185 7.75139C50.6985 7.75139 51.2311 8.93126 51.0788 11.7707ZM40.5765 11.7534C40.5107 12.9653 40.2732 13.9784 39.8922 14.7143C39.2028 16.0462 37.8388 16.4686 37.2373 14.544C36.8036 13.1562 36.9513 11.264 37.1317 10.2418C37.3994 8.72492 38.0697 7.64948 39.1162 7.75139C40.1911 7.85596 40.7137 9.23164 40.5765 11.7534ZM88.7061 13.169C88.4433 13.169 88.3234 13.4388 88.2242 13.8927C87.8801 15.4714 87.5184 15.8277 87.052 15.8277C86.5309 15.8277 86.0627 15.0462 85.9423 13.4814C85.8477 12.2509 85.8629 9.98579 85.9839 7.73255C86.0086 7.26959 85.8803 6.81152 84.6333 6.36043C84.0968 6.16641 83.3168 5.88071 82.9284 6.81419C81.8311 9.45148 81.4018 11.5453 81.3008 12.3957C81.2956 12.4397 81.2414 12.4488 81.2318 12.3458C81.1675 11.6647 81.0236 10.4266 81.0057 7.82585C81.0023 7.31839 80.8943 6.88643 80.3318 6.5328C79.9668 6.30332 78.8585 5.89747 78.4594 6.38031C78.1136 6.77518 77.7132 7.83787 77.2972 9.09755C76.959 10.1214 76.7235 10.814 76.7235 10.814C76.7235 10.814 76.728 8.05147 76.732 7.00362C76.7338 6.6083 76.4615 6.47658 76.3794 6.4527C76.0098 6.34604 75.2816 6.16759 74.9725 6.16759C74.5912 6.16759 74.4978 6.37971 74.4978 6.689C74.4978 6.72964 74.4376 10.3261 74.4376 12.841C74.4376 12.9503 74.4377 13.0694 74.4382 13.1961C74.2272 14.3519 73.5432 15.9211 72.7993 15.9211C72.0544 15.9211 71.703 15.2651 71.703 12.2669C71.703 10.518 71.7557 9.75735 71.7817 8.49233C71.7967 7.7637 71.8258 7.20417 71.8241 7.0772C71.8186 6.68781 71.1424 6.49156 70.8278 6.41902C70.5117 6.34604 70.237 6.31756 70.0225 6.32972C69.7189 6.34693 69.5041 6.54511 69.5041 6.8179C69.5041 6.96431 69.5057 7.24229 69.5057 7.24229C69.1147 6.6304 68.4858 6.20453 68.0673 6.08111C66.9402 5.7478 65.7641 6.04329 64.877 7.27923C64.172 8.26137 63.747 9.37375 63.5797 10.9719C63.4574 12.1404 63.4973 13.3252 63.7147 14.3272C63.452 15.4578 62.9645 15.9211 62.4306 15.9211C61.6555 15.9211 61.0936 14.6614 61.1588 12.4826C61.2019 11.0497 61.4898 10.0439 61.8046 8.58905C61.9388 7.96885 61.8298 7.64414 61.5563 7.33293C61.3054 7.04753 60.7709 6.90171 60.0026 7.08105C59.4552 7.20892 58.6727 7.34643 57.9568 7.45204C57.9568 7.45204 58 7.28042 58.0354 6.97781C58.2217 5.3909 56.4899 5.51966 55.9374 6.02652C55.6076 6.32913 55.3831 6.68603 55.2979 7.32774C55.1628 8.34607 55.9968 8.82639 55.9968 8.82639C55.7232 10.0739 55.0524 11.7032 54.3598 12.8813C53.9889 13.5125 53.7051 13.9802 53.3388 14.4774C53.3375 14.2923 53.3364 14.107 53.3358 13.9228C53.3275 11.3004 53.3625 9.23654 53.378 8.49248C53.393 7.76385 53.4224 7.21915 53.4207 7.09218C53.4166 6.80752 53.2496 6.69983 52.9022 6.56365C52.595 6.4432 52.2318 6.35984 51.8551 6.33076C51.3796 6.29398 51.0931 6.54496 51.1006 6.84193C51.1021 6.898 51.1021 7.24229 51.1021 7.24229C50.711 6.6304 50.0821 6.20453 49.6637 6.08111C48.5366 5.74795 47.3605 6.04329 46.4734 7.27923C45.7685 8.26137 45.3068 9.63957 45.176 10.9598C45.0542 12.1902 45.0767 13.2357 45.2428 14.1167C45.0636 14.9987 44.5483 15.9211 43.9657 15.9211C43.2208 15.9211 42.797 15.2651 42.797 12.2669C42.797 10.518 42.8498 9.75735 42.8757 8.49248C42.8907 7.76385 42.9198 7.20417 42.9181 7.07734C42.9126 6.68796 42.2365 6.49171 41.9218 6.41902C41.5926 6.34322 41.3084 6.31534 41.0902 6.3315C40.8022 6.35272 40.5998 6.60949 40.5998 6.80099V7.24229C40.2087 6.6304 39.5798 6.20453 39.1613 6.08111C38.0343 5.74795 36.8647 6.04803 35.9711 7.27923C35.3883 8.08203 34.9165 8.97205 34.6737 10.9423C34.6035 11.5116 34.5726 12.0449 34.5766 12.5431C34.3442 13.9584 33.3178 15.5894 32.4782 15.5894C31.9869 15.5894 31.519 14.6405 31.519 12.6182C31.519 9.92438 31.6865 6.08912 31.7148 5.71947C31.7148 5.71947 32.7756 5.70152 32.981 5.69914C33.5101 5.69336 33.9894 5.70582 34.6941 5.66992C35.0476 5.65197 35.3882 4.38873 35.0233 4.23239C34.858 4.16163 33.6893 4.09962 33.2261 4.08983C32.8365 4.08108 31.752 4.00113 31.752 4.00113C31.752 4.00113 31.8493 1.45537 31.8719 1.18643C31.8912 0.962296 31.5999 0.84689 31.4329 0.776875C31.0269 0.605842 30.6635 0.52396 30.2329 0.435551C29.6379 0.313322 29.368 0.432881 29.3152 0.932925C29.2358 1.69182 29.1947 3.91465 29.1947 3.91465C28.7581 3.91465 27.2666 3.82965 26.8299 3.82965C26.4241 3.82965 25.9861 5.56742 26.5471 5.58878C27.1926 5.6137 28.3174 5.63536 29.0632 5.65761C29.0632 5.65761 29.03 9.5562 29.03 10.76C29.03 10.888 29.0305 11.0112 29.0313 11.131C28.6209 13.2609 27.1753 14.4116 27.1753 14.4116C27.4858 13.0024 26.8516 11.9441 25.7093 11.0483C25.2885 10.7183 24.4577 10.0933 23.5282 9.40846C23.5282 9.40846 24.0665 8.88023 24.544 7.8171C24.8823 7.06399 24.8969 6.20245 24.0665 6.01243C22.6945 5.69825 21.5633 6.70161 21.2259 7.77275C20.9644 8.60269 21.1039 9.21829 21.616 9.85792C21.6534 9.90465 21.6939 9.95241 21.7358 10.0005C21.4261 10.5949 21.0006 11.3951 20.6403 12.0158C19.6401 13.7389 18.8846 15.1018 18.3136 15.1018C17.8571 15.1018 17.8632 13.7179 17.8632 12.4224C17.8632 11.3055 17.9461 9.62637 18.0122 7.88786C18.0341 7.3129 17.7454 6.98537 17.2614 6.6887C16.9674 6.50847 16.3398 6.15409 15.9763 6.15409C15.4323 6.15409 13.8626 6.22782 12.3795 10.4998C12.1925 11.0382 11.8253 12.0193 11.8253 12.0193L11.857 6.88213C11.857 6.76168 11.7925 6.64524 11.6451 6.56558C11.3951 6.43045 10.7276 6.15409 10.1341 6.15409C9.85136 6.15409 9.71014 6.28507 9.71014 6.54615L9.65845 14.5833C9.65845 15.1942 9.67439 15.9065 9.73502 16.218C9.7955 16.53 9.89337 16.7838 10.0145 16.9348C10.1356 17.0855 10.2756 17.2005 10.5064 17.2479C10.7212 17.292 11.8977 17.4424 11.9588 16.9947C12.0321 16.4582 12.0349 15.8779 12.6527 13.7136C13.6144 10.3442 14.8681 8.70015 15.4577 8.1163C15.5608 8.01424 15.6785 8.00816 15.6728 8.17519C15.6477 8.9139 15.5592 10.76 15.4996 12.328C15.3399 16.5248 16.1066 17.3027 17.2023 17.3027C18.0405 17.3027 19.2221 16.4733 20.4888 14.3739C21.2785 13.0656 22.0452 11.7827 22.5961 10.8582C22.98 11.2121 23.4108 11.5929 23.8413 11.9998C24.8417 12.9453 25.1702 13.8437 24.9523 14.6961C24.7856 15.3477 24.1578 16.0193 23.0406 15.3666C22.7149 15.1761 22.576 15.029 22.2485 14.8143C22.0726 14.699 21.804 14.6645 21.643 14.7854C21.2247 15.0994 20.9854 15.4989 20.8488 15.9934C20.716 16.4746 21.2 16.729 21.7017 16.9515C22.1337 17.1431 23.0622 17.3166 23.6543 17.3363C25.9615 17.4132 27.8098 16.2271 29.0964 13.1675C29.3267 15.8099 30.3069 17.305 32.0099 17.305C33.1484 17.305 34.29 15.8396 34.7892 14.3979C34.9325 14.9856 35.1446 15.4967 35.4185 15.9289C36.7308 17.9993 39.2765 17.5536 40.5552 15.7956C40.9506 15.2523 41.0108 15.0571 41.0108 15.0571C41.1973 16.7172 42.5398 17.2972 43.3084 17.2972C44.1693 17.2972 45.0582 16.8919 45.6812 15.4953C45.7542 15.6469 45.8339 15.7917 45.9209 15.9289C47.2331 17.9993 49.7788 17.5536 51.0575 15.7956C51.1179 15.7131 51.1702 15.6383 51.2159 15.5711L51.2534 16.6615C51.2534 16.6615 50.5239 17.3279 50.0761 17.7367C48.1028 19.5377 46.6037 20.9037 46.4935 22.4945C46.3532 24.5228 48.0042 25.2767 49.2552 25.3755C50.5813 25.4803 51.7189 24.7502 52.4172 23.7285C53.0316 22.8291 53.4339 20.8935 53.4044 18.9817C53.3926 18.2161 53.3732 17.2427 53.358 16.1993C54.0507 15.3983 54.8312 14.3858 55.5498 13.2008C56.3329 11.9094 57.1722 10.1751 57.6019 8.82535C57.6019 8.82535 58.3311 8.83158 59.1093 8.78085C59.3583 8.76468 59.4298 8.81526 59.3837 8.99697C59.3282 9.21651 58.4006 12.7793 59.2471 15.1527C59.8266 16.7774 61.1329 17.3001 61.9074 17.3001C62.814 17.3001 63.6813 16.6184 64.1461 15.606C64.2021 15.7189 64.2606 15.828 64.3245 15.9289C65.6368 17.9993 68.1735 17.551 69.4612 15.7956C69.7518 15.3995 69.9167 15.0571 69.9167 15.0571C70.1931 16.7752 71.5348 17.3059 72.3033 17.3059C73.1039 17.3059 73.8636 16.9791 74.48 15.5268C74.5058 16.1663 74.5463 16.6891 74.6104 16.8539C74.6494 16.9548 74.8769 17.0813 75.0424 17.1425C75.7747 17.4129 76.5216 17.285 76.798 17.2294C76.9894 17.1908 77.1387 17.0379 77.1591 16.643C77.2127 15.6061 77.1798 13.8641 77.4954 12.5692C78.0253 10.3964 78.5196 9.55353 78.7541 9.13626C78.8853 8.90248 79.0334 8.86391 79.0387 9.11134C79.0498 9.61198 79.0748 11.0821 79.2801 13.0574C79.4308 14.5101 79.6322 15.3688 79.787 15.6405C80.2287 16.4177 80.7742 16.4545 81.2184 16.4545C81.501 16.4545 82.092 16.3767 82.0391 15.8822C82.0133 15.6411 82.0584 14.1514 82.5809 12.0107C82.922 10.6128 83.4908 9.34987 83.6959 8.88795C83.7716 8.71765 83.8067 8.8519 83.8055 8.87801C83.7623 9.84071 83.6653 12.9896 84.0592 14.7118C84.5931 17.0449 86.1376 17.3059 86.6758 17.3059C87.8248 17.3059 88.7645 16.4356 89.081 14.1456C89.1573 13.5945 89.0444 13.169 88.7061 13.169Z" fill="#A7AAB4"/>
</g>
<defs>
<clipPath id="clip0_1107_460">
<rect width="88.7843" height="25.2103" fill="white" transform="translate(0.45459 0.316528)"/>
</clipPath>
</defs>
</svg>
