<svg width="114" height="26" viewBox="0 0 114 26" fill="none" xmlns="http://www.w3.org/2000/svg">
<g clip-path="url(#clip0_1107_464)">
<path d="M13.2501 0.316528C20.2669 0.316528 25.9547 5.95943 25.9547 12.9209C25.9547 19.8824 20.2669 25.5253 13.2501 25.5253C6.23321 25.5253 0.54541 19.8824 0.54541 12.9209C0.54541 5.95943 6.23321 0.316528 13.2501 0.316528ZM71.0713 7.22129C74.0581 7.22129 76.4732 9.77335 76.4732 12.9209C76.4732 16.0685 74.0581 18.6205 71.0713 18.6205C69.6754 18.6205 68.3613 18.0659 67.3821 17.0889L67.3127 17.0184V22.4203L67.3113 22.45C67.2968 22.5968 67.1763 22.7164 67.0283 22.7307L66.9983 22.7322H65.0833L65.0534 22.7307C64.9054 22.7164 64.7849 22.5968 64.7704 22.45L64.7689 22.4203V7.81677L64.7704 7.78706C64.7849 7.64023 64.9054 7.52067 65.0534 7.5063L65.0833 7.50485H66.9983L67.0283 7.5063C67.1763 7.52067 67.2968 7.64023 67.3113 7.78706L67.3127 7.81677V8.82342C68.2988 7.80259 69.6564 7.22129 71.0713 7.22129ZM10.1346 6.93772C5.7759 11.2621 7.17641 18.9466 7.17641 18.9466C7.17641 18.9466 14.9364 20.3219 19.2808 16.0117C21.696 13.6156 21.6103 9.63157 19.0808 7.13622C16.5513 4.64086 12.5498 4.54162 10.1346 6.93772ZM80.7319 3.10962L80.7619 3.11107C80.9099 3.12544 81.0304 3.245 81.0449 3.39184L81.0463 3.42154V8.82342C82.0324 7.80259 83.39 7.22129 84.8049 7.22129C87.7917 7.22129 90.2068 9.77335 90.2068 12.9209C90.2068 16.0685 87.7917 18.6205 84.8049 18.6205C83.409 18.6205 82.0949 18.0659 81.1157 17.0889L81.0463 17.0184V18.025L81.0449 18.0547C81.0304 18.2016 80.9099 18.3211 80.7619 18.3355L80.7319 18.337H78.8169C78.6555 18.337 78.5195 18.2114 78.504 18.0547L78.5025 18.025V3.42154C78.5025 3.26141 78.6291 3.1264 78.787 3.11107L78.8169 3.10962H80.7319ZM97.2523 7.22129C100.482 7.22129 103.097 9.77335 103.097 12.9209C103.097 16.0685 100.482 18.6205 97.2523 18.6205C94.0225 18.6205 91.4073 16.0685 91.4073 12.9209C91.4073 9.77335 94.0225 7.22129 97.2523 7.22129ZM55.5227 7.22129C56.9186 7.22129 58.2326 7.77587 59.2118 8.75291L59.2812 8.82342V7.81677L59.2827 7.78706C59.2972 7.64023 59.4177 7.52067 59.5657 7.5063L59.5956 7.50485H61.5106C61.672 7.50485 61.8081 7.63044 61.8235 7.78706L61.825 7.81677V18.025L61.8235 18.0547C61.8091 18.2016 61.6885 18.3211 61.5405 18.3355L61.5106 18.337H59.5956L59.5657 18.3355C59.4177 18.3211 59.2972 18.2016 59.2827 18.0547L59.2812 18.025V17.0184C58.2951 18.0392 56.9375 18.6205 55.5227 18.6205C52.5359 18.6205 50.1207 16.0685 50.1207 12.9209C50.1207 9.77335 52.5359 7.22129 55.5227 7.22129ZM113.13 7.49067C113.187 7.49067 113.244 7.50485 113.287 7.53321C113.407 7.61296 113.453 7.77994 113.387 7.90564L113.372 7.9302L110.086 12.8925L113.401 17.8974C113.43 17.9541 113.444 18.0109 113.444 18.0676C113.444 18.2138 113.331 18.3351 113.187 18.3497L113.158 18.3511H110.972C110.813 18.3511 110.667 18.2786 110.578 18.156L110.557 18.1243L108.585 14.8633L106.613 18.1243C106.534 18.2552 106.394 18.3377 106.238 18.3496L106.198 18.3511H103.983C103.926 18.3511 103.869 18.337 103.826 18.3086C103.706 18.2288 103.66 18.0619 103.726 17.9362L103.74 17.9116L107.056 12.9067L103.769 7.94437C103.74 7.90184 103.726 7.84513 103.726 7.78841C103.726 7.6422 103.839 7.52091 103.983 7.50632L104.012 7.50485H106.227C106.385 7.50485 106.531 7.57734 106.62 7.7L106.641 7.7317L108.571 10.936L110.5 7.71752C110.579 7.58665 110.719 7.5041 110.875 7.49217L110.914 7.49067H113.13ZM44.39 7.22129C46.5803 7.22129 48.3653 8.87079 48.4051 10.9363L48.4058 11.0069L48.4201 18.025L48.4186 18.0547C48.4041 18.2016 48.2836 18.3211 48.1356 18.3355L48.1057 18.337H46.1764C46.015 18.337 45.8789 18.2114 45.8635 18.0547L45.862 18.025V11.7867C45.862 10.4681 44.8474 9.46143 43.6326 9.46143C42.5519 9.46143 41.6641 10.3914 41.4703 11.6067L41.4604 11.6732L41.4747 18.025L41.4732 18.0547C41.4587 18.2016 41.3382 18.3211 41.1902 18.3355L41.1603 18.337H39.231C39.0696 18.337 38.9335 18.2114 38.9181 18.0547L38.9166 18.025V11.7867C38.9166 10.4681 37.902 9.46143 36.6872 9.46143C35.5349 9.46143 34.5898 10.5171 34.4907 11.8464L34.4864 11.9143V18.025L34.485 18.0547C34.4705 18.2016 34.35 18.3211 34.202 18.3355L34.172 18.337H32.257L32.2271 18.3355C32.0791 18.3211 31.9586 18.2016 31.9441 18.0547L31.9426 18.025V7.81677L31.9441 7.78706C31.9586 7.64023 32.0791 7.52067 32.2271 7.5063L32.257 7.50485H34.172L34.202 7.5063C34.35 7.52067 34.4705 7.64023 34.485 7.78706L34.4864 7.81677V8.72417C35.1724 7.78841 36.2728 7.22129 37.4446 7.22129C38.9452 7.20711 40.3457 8.02944 41.046 9.34801C41.6605 8.0578 42.9609 7.23547 44.39 7.22129ZM84.3618 9.50397C82.5701 9.50397 81.1266 10.9686 81.0624 12.8066L81.0606 12.8784V12.9634C81.0749 14.835 82.5469 16.3378 84.3618 16.3378C86.1768 16.3378 87.663 14.8066 87.663 12.9209C87.663 11.0352 86.1911 9.50397 84.3618 9.50397ZM97.238 9.50397C95.423 9.50397 93.9368 11.0352 93.9368 12.9209C93.9368 14.8066 95.4087 16.3378 97.238 16.3378C99.0529 16.3378 100.539 14.8066 100.539 12.9209C100.539 11.0352 99.0529 9.50397 97.238 9.50397ZM55.9657 9.50397C54.1508 9.50397 52.6645 11.0352 52.6645 12.9209C52.6645 14.8066 54.1365 16.3378 55.9657 16.3378C57.7577 16.3378 59.2153 14.8728 59.2657 13.0343L59.2669 12.9634V12.8784C59.2526 11.0069 57.7807 9.50397 55.9657 9.50397ZM70.6282 9.50397C68.8365 9.50397 67.393 10.9686 67.3288 12.8066L67.327 12.8784V12.9634C67.3413 14.835 68.8133 16.3378 70.6282 16.3378C72.4575 16.3378 73.9294 14.8066 73.9294 12.9209C73.9294 11.0352 72.4575 9.50397 70.6282 9.50397ZM14.7077 7.70334L15.9511 10.2412L18.5091 11.4747L15.9511 12.7082L14.7077 15.2461L13.4644 12.7082L10.9063 11.4747L13.4644 10.2412L14.7077 7.70334Z" fill="#A7AAB4"/>
</g>
<defs>
<clipPath id="clip0_1107_464">
<rect width="112.899" height="25.2103" fill="white" transform="translate(0.54541 0.316528)"/>
</clipPath>
</defs>
</svg>
