<svg width="87" height="23" viewBox="0 0 87 23" fill="none" xmlns="http://www.w3.org/2000/svg">
<path d="M27.8862 17.9444L28.9528 15.4428C30.1053 16.3114 31.6364 16.7631 33.1502 16.7631C34.2683 16.7631 34.9736 16.3288 34.9736 15.6687C34.9564 13.8272 28.2819 15.2691 28.2303 10.6481C28.2131 8.30291 30.2774 6.49622 33.2018 6.49622C34.9392 6.49622 36.6767 6.93052 37.9152 7.92072L36.9175 10.4744C35.7821 9.74479 34.3715 9.22363 33.0297 9.22363C32.118 9.22363 31.5159 9.65793 31.5159 10.2138C31.5331 12.0205 38.2593 11.0303 38.3281 15.4428C38.3281 17.8402 36.3154 19.5253 33.4254 19.5253C31.3095 19.5253 29.3656 19.0215 27.8862 17.9444ZM68.8108 14.5395L71.7524 16.1898C70.6514 18.1876 68.5527 19.5253 66.1272 19.5253C62.5663 19.5253 59.6763 16.6068 59.6763 13.0107C59.6763 9.41472 62.5663 6.49622 66.1272 6.49622C68.5355 6.49622 70.6514 7.85124 71.7524 9.83165L68.8108 11.482C68.2775 10.5439 67.2797 9.90114 66.1272 9.90114C64.4241 9.90114 63.0479 11.2909 63.0479 13.0107C63.0479 14.7306 64.4241 16.1203 66.1272 16.1203C67.2797 16.1203 68.2775 15.4776 68.8108 14.5395ZM39.8075 1.09351H43.4888V19.2821H39.8075V1.09351ZM73.1974 1.09351H76.8787V11.7773L81.0417 6.7568H85.5487L80.4052 12.8023L85.9616 19.2821H81.2481L76.8787 13.8272V19.2821H73.1974V1.09351ZM54.4295 14.5742V11.4994C53.8963 10.596 52.7953 9.90114 51.5567 9.90114C49.8537 9.90114 48.4775 11.2909 48.4775 13.0107C48.4775 14.7306 49.8537 16.1203 51.5567 16.1203C52.7953 16.1203 53.8963 15.4602 54.4295 14.5742ZM54.4295 6.7568H58.1109V19.2647H54.4295V17.7881C53.8275 18.813 52.3308 19.5253 50.7654 19.5253C47.5314 19.5253 44.9854 16.6068 44.9854 12.9934C44.9854 9.37998 47.5314 6.49622 50.7654 6.49622C52.3308 6.49622 53.8275 7.20847 54.4295 8.23342V6.7568Z" fill="#A7AAB4"/>
<path d="M5.12737 14.5568C5.12737 15.8249 4.11243 16.8499 2.85665 16.8499C1.60088 16.8499 0.585938 15.8249 0.585938 14.5568C0.585938 13.2886 1.60088 12.2637 2.85665 12.2637H5.12737V14.5568ZM6.26273 14.5568C6.26273 13.2886 7.27767 12.2637 8.53345 12.2637C9.78922 12.2637 10.8042 13.2886 10.8042 14.5568V20.2896C10.8042 21.5577 9.78922 22.5827 8.53345 22.5827C7.27767 22.5827 6.26273 21.5577 6.26273 20.2896V14.5568Z" fill="#A7AAB4"/>
<path d="M8.53356 5.34965C7.27779 5.34965 6.26284 4.3247 6.26284 3.05654C6.26284 1.78838 7.27779 0.763428 8.53356 0.763428C9.78934 0.763428 10.8043 1.78838 10.8043 3.05654V5.34965H8.53356ZM8.53356 6.51358C9.78934 6.51358 10.8043 7.53853 10.8043 8.80669C10.8043 10.0748 9.78934 11.0998 8.53356 11.0998H2.83957C1.58379 11.0998 0.568848 10.0748 0.568848 8.80669C0.568848 7.53853 1.58379 6.51358 2.83957 6.51358H8.53356Z" fill="#A7AAB4"/>
<path d="M17.6336 8.80669C17.6336 7.53853 18.6485 6.51358 19.9043 6.51358C21.1601 6.51358 22.175 7.53853 22.175 8.80669C22.175 10.0748 21.1601 11.0998 19.9043 11.0998H17.6336V8.80669ZM16.4982 8.80669C16.4982 10.0748 15.4833 11.0998 14.2275 11.0998C12.9717 11.0998 11.9568 10.0748 11.9568 8.80669V3.05654C11.9568 1.78838 12.9717 0.763428 14.2275 0.763428C15.4833 0.763428 16.4982 1.78838 16.4982 3.05654V8.80669Z" fill="#A7AAB4"/>
<path d="M14.2275 17.9964C15.4833 17.9964 16.4982 19.0214 16.4982 20.2896C16.4982 21.5577 15.4833 22.5827 14.2275 22.5827C12.9717 22.5827 11.9568 21.5577 11.9568 20.2896V17.9964H14.2275ZM14.2275 16.8499C12.9717 16.8499 11.9568 15.8249 11.9568 14.5568C11.9568 13.2886 12.9717 12.2637 14.2275 12.2637H19.9215C21.1773 12.2637 22.1922 13.2886 22.1922 14.5568C22.1922 15.8249 21.1773 16.8499 19.9215 16.8499H14.2275Z" fill="#A7AAB4"/>
</svg>
