<svg width="69" height="22" viewBox="0 0 69 22" fill="none" xmlns="http://www.w3.org/2000/svg">
<path d="M10.3733 0.184082C16.016 0.184082 20.5956 4.81994 20.5956 10.532C20.5956 16.244 16.016 20.8799 10.3733 20.8799C4.7305 20.8799 0.150879 16.244 0.150879 10.532C0.150879 4.81994 4.7305 0.184082 10.3733 0.184082ZM10.3733 2.91593C6.20252 2.91593 2.84959 6.31003 2.84959 10.532C2.84959 14.7539 6.20252 18.148 10.3733 18.148C14.544 18.148 17.8969 14.7539 17.8969 10.532C17.8969 6.31003 14.544 2.91593 10.3733 2.91593ZM62.9162 7.17926C65.9421 7.17926 68.1092 9.4144 68.1092 12.0635V12.1049C68.1092 14.7539 65.9421 17.0305 62.8754 17.0305C59.8495 17.0305 57.6824 14.7953 57.6824 12.1462V12.1049C57.6824 9.45579 59.8495 7.17926 62.9162 7.17926ZM27.7104 4.28185C27.8331 4.24046 27.9557 4.36463 27.9557 4.44741V7.42761H33.394C33.5167 7.42761 33.5985 7.51039 33.6394 7.59317L34.0892 9.29023L34.498 10.9873L34.5389 11.0701L34.5798 10.9045L35.6021 7.469C35.643 7.38621 35.7656 7.30343 35.8474 7.30343H38.5461C38.6688 7.30343 38.7506 7.38621 38.7914 7.469L39.8546 11.1528L39.8955 10.9873L40.795 7.55178C40.8359 7.469 40.9586 7.38621 41.0404 7.38621H47.9916C48.0734 7.38621 48.1551 7.469 48.1551 7.59317V16.6165C48.1551 16.6993 48.0734 16.7821 47.9916 16.7821H44.516C44.4342 16.7821 44.3524 16.6993 44.3524 16.6165V7.92431L41.7355 16.6165C41.6946 16.6993 41.5719 16.7821 41.4902 16.7821H38.6279C38.5052 16.7821 38.4234 16.6993 38.3826 16.6165L37.8101 14.7953L37.1968 12.8085L35.9701 16.6579C35.9292 16.7407 35.8065 16.8235 35.7247 16.8235H32.8625C32.7398 16.8235 32.658 16.7407 32.6171 16.6579L30.0411 8.00709V10.2422C30.0411 10.325 29.9593 10.4078 29.8775 10.4078H27.9148V12.7671C27.9148 13.4708 28.242 13.7191 28.8553 13.7191C29.1824 13.7191 29.4686 13.6777 29.8366 13.5122C29.9184 13.5122 30.0411 13.5536 30.0411 13.6777V16.4096C29.4278 16.7407 28.5282 16.9477 27.5877 16.9477C25.3388 16.9477 24.1121 15.8715 24.1121 13.5949V10.3664H23.2126C23.1308 10.3664 23.049 10.2836 23.049 10.2008V7.55178C23.049 7.469 23.1308 7.38621 23.2126 7.38621H24.1121V5.52359C24.1121 5.44081 24.153 5.39942 24.2757 5.35803L27.7104 4.28185ZM52.5712 4.24046C52.653 4.24046 52.7348 4.32324 52.7348 4.40602V16.6165C52.7348 16.6993 52.653 16.7821 52.5712 16.7821H49.0956C49.0138 16.7821 48.932 16.6993 48.932 16.6165V4.40602C48.932 4.32324 49.0138 4.24046 49.0956 4.24046H52.5712ZM57.1508 7.38621C57.2326 7.38621 57.3144 7.469 57.3144 7.59317V16.6165C57.3144 16.6993 57.2326 16.7821 57.1508 16.7821H53.6752C53.5934 16.7821 53.5117 16.6993 53.5117 16.6165V7.55178C53.5117 7.469 53.5934 7.38621 53.6752 7.38621H57.1508ZM12.9084 10.9459C14.0827 10.9459 15.0347 11.9095 15.0347 13.0983C15.0347 14.287 14.0827 15.2506 12.9084 15.2506C11.7341 15.2506 10.7821 14.287 10.7821 13.0983C10.7821 11.9095 11.7341 10.9459 12.9084 10.9459ZM7.8381 10.9459C9.0124 10.9459 9.96436 11.9095 9.96436 13.0983C9.96436 14.287 9.0124 15.2506 7.8381 15.2506C6.66381 15.2506 5.71185 14.287 5.71185 13.0983C5.71185 11.9095 6.66381 10.9459 7.8381 10.9459ZM62.8754 10.4078C62.0167 10.4078 61.4033 11.1115 61.4033 12.0221V12.0635C61.4033 12.9741 62.0576 13.7191 62.9162 13.7191C63.7749 13.7191 64.3883 13.0155 64.3883 12.1049C64.3883 11.1528 63.734 10.4078 62.8754 10.4078ZM12.9084 5.81334C14.0827 5.81334 15.0347 6.77698 15.0347 7.9657C15.0347 9.15441 14.0827 10.1181 12.9084 10.1181C11.7341 10.1181 10.7821 9.15441 10.7821 7.9657C10.7821 6.77698 11.7341 5.81334 12.9084 5.81334ZM7.8381 5.81334C9.0124 5.81334 9.96436 6.77698 9.96436 7.9657C9.96436 9.15441 9.0124 10.1181 7.8381 10.1181C6.66381 10.1181 5.71185 9.15441 5.71185 7.9657C5.71185 6.77698 6.66381 5.81334 7.8381 5.81334ZM48.0325 4.24046C48.1551 4.24046 48.2369 4.32324 48.196 4.40602V6.51699C48.196 6.59978 48.1142 6.68256 48.0325 6.68256H44.4342C44.3524 6.68256 44.2706 6.59978 44.2706 6.51699V4.40602C44.2706 4.32324 44.3524 4.24046 44.4342 4.24046H48.0325ZM57.1917 4.24046C57.3144 4.24046 57.3962 4.32324 57.3553 4.40602V6.51699C57.3553 6.59978 57.2735 6.68256 57.1917 6.68256H53.5934C53.5117 6.68256 53.4299 6.59978 53.4299 6.51699V4.40602C53.4299 4.32324 53.5117 4.24046 53.5934 4.24046H57.1917Z" fill="#A7AAB4"/>
</svg>
