<svg width="90" height="26" viewBox="0 0 90 26" fill="none" xmlns="http://www.w3.org/2000/svg">
<g clip-path="url(#clip0_1107_456)">
<path d="M82.3857 21.8781H84.9333L89.3411 10.7551H86.8194L84.9975 16.2949L83.0781 10.7551H80.2635L83.6149 18.7895L82.3857 21.8781ZM69.7412 13.3956V19.0972H67.171V10.7551H68.9769L69.5137 11.4839C70.213 10.901 70.9613 10.5606 71.8235 10.5606C72.9787 10.5606 73.8569 10.901 74.3937 11.7436C75.1745 11.0304 76.0042 10.5606 77.0619 10.5606C79.0463 10.5606 80.2014 11.5814 80.2014 14.3512V19.0972H77.6312V14.6429C77.6312 13.3632 77.1104 12.9905 76.2807 12.9905C75.7928 12.9905 75.3864 13.1199 74.9306 13.4116C74.9635 13.7032 74.9795 14.0108 74.9795 14.3512V19.0972H72.4093V14.6429C72.4093 13.3632 71.8885 12.9905 71.0428 12.9905C70.5709 12.9905 70.1805 13.1039 69.7412 13.3956ZM60.7772 14.1083H64.0796C63.9007 13.0232 63.3149 12.5046 62.4366 12.5046C61.6879 12.5046 60.9726 12.9421 60.7772 14.1083ZM62.6155 19.2594C60.1428 19.2594 58.158 18.0444 58.158 14.8371C58.158 11.8402 60.0778 10.5446 62.2902 10.5446C64.9579 10.5446 66.1455 12.4072 66.1455 15.3393H60.7607C60.9401 16.7807 61.8348 17.2022 63.0224 17.2022C64.1709 17.2022 65.0693 16.92 65.7645 16.4543L65.4157 18.4844C64.7522 18.9948 63.9558 19.2594 62.6155 19.2594ZM53.0451 17.1052C53.6305 17.1052 54.0699 17.0077 54.5252 16.6677V13.0392C54.1188 12.7959 53.7124 12.6828 53.1266 12.6828C51.874 12.6828 51.1582 13.525 51.1582 14.9341C51.1582 16.3113 51.8904 17.1052 53.0451 17.1052ZM55.0296 18.4819C54.3627 18.9841 53.5984 19.2917 52.5083 19.2917C50.2145 19.2917 48.5555 17.8826 48.5555 14.9829C48.5555 12.0995 50.4589 10.5446 52.8987 10.5446C53.468 10.5446 54.0213 10.6257 54.5252 10.8199V7.27905H57.0959V19.0972H55.4689L55.0296 18.4819ZM37.665 14.1567V7.97419H40.3327V14.1083C40.3327 16.3113 41.325 16.7648 42.6915 16.7648C44.172 16.7648 44.9363 16.1167 44.9363 14.1083V7.97419H47.6205V14.1567C47.6205 17.8015 46.0264 19.3241 42.5615 19.3241C39.3405 19.3241 37.665 18.0121 37.665 14.1567Z" fill="#A7AAB4"/>
<path d="M30.866 14.6202C30.7578 14.5338 30.636 14.4756 30.5036 14.4507C29.7211 15.2273 28.7664 16.0453 27.9185 16.595C27.5273 16.8539 27.0353 16.9834 26.7095 16.9834C25.9596 16.9834 25.6338 16.2714 25.5359 15.1396C25.4055 13.6195 25.3175 11.7987 25.3175 8.98461C25.3175 6.09839 24.6597 4.13629 22.9073 3.98227C22.8333 3.97571 22.7584 3.97121 22.6802 3.97121C21.6045 3.97121 21.0829 4.52092 20.3984 5.91201C19.8118 7.10853 18.899 8.85517 17.2041 12.1543C15.7372 15.0008 14.1074 17.5237 12.7055 19.2703C12.3151 19.7545 12.0065 20.0871 11.7165 20.2764C11.5228 20.4033 11.3368 20.4668 11.141 20.4668C10.5877 20.4668 10.1838 20.0019 10.0489 18.9193C10.0168 18.662 9.9999 18.37 9.9999 18.041C9.9999 15.8094 10.8477 12.1867 12.3142 6.84965C13.39 2.96844 12.9338 0.316528 10.5865 0.316528C10.5828 0.316528 10.5791 0.316528 10.5754 0.316528C10.5705 0.316528 10.5655 0.316528 10.5602 0.316528L10.5585 0.316938C10.0271 0.323082 9.58648 0.514787 9.16195 0.847403C8.74401 1.1751 8.32565 1.88294 7.93526 2.8345C7.4951 3.90649 4.81876 9.2521 0.559081 12.006C0.508895 13.053 1.10414 14.0996 2.31026 14.2131C3.40819 14.3167 4.18773 13.8559 5.19146 13.1845C5.11618 13.5184 5.04666 13.8305 4.98331 14.116C4.90844 14.4531 4.84468 14.744 4.79367 14.9787C4.71716 15.3281 4.66862 15.553 4.65422 15.6152C4.51477 16.2522 4.41522 16.8572 4.35063 17.4315C3.75004 22.7775 6.23838 25.4155 9.15249 25.4155C9.63955 25.4155 10.1221 25.3578 10.6013 25.2365C13.812 24.4259 16.903 20.7585 20.5617 12.3161C20.5062 13.2345 20.5004 14.0922 20.5403 14.8881C20.7814 19.7266 22.7033 21.1783 25.4187 21.1783C27.4722 21.1783 29.3953 20.1113 30.3732 18.7849C31.0906 17.8469 31.3839 16.8117 31.3839 16.0031C31.3839 15.3756 31.184 14.8746 30.866 14.6202Z" fill="#A7AAB4"/>
</g>
<defs>
<clipPath id="clip0_1107_456">
<rect width="88.7843" height="25.2103" fill="white" transform="translate(0.556152 0.316528)"/>
</clipPath>
</defs>
</svg>
